<svg width="57" height="24" viewBox="0 0 57 24" fill="none" xmlns="http://www.w3.org/2000/svg">
<path id="Vector" d="M10.4152 3.08793C9.74732 3.90103 8.67866 4.54054 7.61 4.44918C7.47642 3.35287 8.00184 2.18348 8.61632 1.47088C9.28424 0.639513 10.4509 0.0456795 11.4037 0C11.5106 1.13285 11.0742 2.25657 10.4152 3.08793ZM11.3859 4.65931C9.83638 4.56795 8.50946 5.56376 7.7792 5.56376C7.03114 5.56376 5.90905 4.70499 4.68008 4.73239C3.086 4.7598 1.60768 5.68253 0.797278 7.15341C-0.876959 10.1043 0.360908 14.4621 1.98171 16.8649C2.7743 18.0525 3.71829 19.359 4.96506 19.3133C6.1495 19.2676 6.61258 18.5276 8.03746 18.5276C9.47125 18.5276 9.88981 19.3133 11.1366 19.295C12.4279 19.2676 13.2383 18.1073 14.0309 16.9197C14.9303 15.5676 15.3044 14.2611 15.3222 14.188C15.2955 14.1606 12.8286 13.1922 12.8019 10.2687C12.7752 7.82033 14.7522 6.66007 14.8413 6.58698C13.7281 4.8877 11.9915 4.70499 11.3859 4.65931ZM20.3271 1.35211V19.158H23.0255V13.0735H26.7569C30.1677 13.0735 32.5544 10.6707 32.5544 7.19909C32.5544 3.72745 30.2033 1.35211 26.8459 1.35211H20.3271ZM23.0255 3.68177H26.1335C28.4756 3.68177 29.8115 4.96079 29.8115 7.20822C29.8115 9.45565 28.4756 10.7529 26.1246 10.7529H23.0255V3.68177ZM37.4702 19.295C39.1623 19.295 40.7296 18.418 41.4421 17.0202H41.4955V19.158H43.989V10.2962C43.989 7.72897 41.9853 6.06624 38.904 6.06624C36.0453 6.06624 33.9258 7.74724 33.8457 10.0495H36.2769C36.4817 8.95318 37.4702 8.23144 38.8238 8.23144C40.4714 8.23144 41.3975 9.01713 41.3975 10.4697V11.4564L38.0312 11.6665C34.9054 11.8584 33.2134 13.174 33.2134 15.4579C33.2223 17.7602 34.9678 19.295 37.4702 19.295ZM38.2005 17.1846C36.7667 17.1846 35.8494 16.472 35.8494 15.394C35.8494 14.2703 36.731 13.6216 38.4142 13.5211L41.4064 13.3293V14.3342C41.4064 15.997 40.0261 17.1846 38.2005 17.1846ZM47.3286 24C49.9557 24 51.1936 22.9676 52.2712 19.8523L57 6.23982H54.2571L51.0867 16.7552H51.0333L47.8629 6.23982H45.0488L49.6084 19.2037L49.3591 19.9893C48.9494 21.3232 48.2815 21.8439 47.0882 21.8439C46.8744 21.8439 46.4648 21.8165 46.2956 21.7982V23.936C46.4559 23.9726 47.1238 24 47.3286 24Z" fill="#C2C2C2"/>
</svg>
