<svg width="57" height="24" viewBox="0 0 57 24" fill="none" xmlns="http://www.w3.org/2000/svg">
<path id="Vector" d="M9.41282 0.000736967C7.66785 -5.73433e-06 5.9571 0.513969 4.47191 1.48518C2.98671 2.45638 1.78565 3.84652 1.00306 5.50009C0.343515 6.89026 0 8.42479 0 9.98091C0 11.537 0.343515 13.0716 1.00306 14.4617C1.78565 16.1153 2.98671 17.5054 4.47191 18.4767C5.9571 19.4479 7.66785 19.9618 9.41282 19.9611C11.954 19.9611 14.0915 19.0747 15.6518 17.5513C17.4283 15.8139 18.4543 13.2455 18.4543 10.2088C18.4507 9.52864 18.3951 8.84991 18.2881 8.17927H9.41519V12.0218H14.4976C14.3935 12.6353 14.1737 13.2203 13.8513 13.7417C13.5289 14.2631 13.1106 14.7101 12.6214 15.056C11.7759 15.6628 10.6882 16.0103 9.41519 16.0103C6.95948 16.0103 4.87663 14.2553 4.13089 11.8908C3.73791 10.6516 3.73791 9.31019 4.13089 8.07099C4.87663 5.70405 6.95948 3.95151 9.41519 3.95151C10.7571 3.9277 12.054 4.46501 13.0251 5.44722L15.7136 2.60185C14.0112 0.902499 11.7508 -0.0300119 9.41282 0.000736967ZM24.8525 1.38565V18.76H26.9567V11.7221H30.436C31.8673 11.7221 33.0722 11.2286 34.0507 10.2415C34.5379 9.7787 34.925 9.20963 35.1853 8.57333C35.4456 7.93703 35.573 7.24856 35.5588 6.55515C35.5687 5.86534 35.4392 5.18128 35.1791 4.54892C34.919 3.91656 34.5342 3.35055 34.0507 2.88891C33.5715 2.39783 33.0054 2.012 32.3851 1.75359C31.7648 1.49518 31.1024 1.36928 30.436 1.38313L24.8525 1.38565ZM30.6165 3.52597C30.9836 3.53333 31.3457 3.61842 31.6813 3.77626C32.017 3.93409 32.3195 4.16147 32.5711 4.44504C32.8387 4.721 33.0514 5.05102 33.1966 5.41561C33.3419 5.7802 33.4167 6.17196 33.4167 6.56774C33.4167 6.96351 33.3419 7.35527 33.1966 7.71986C33.0514 8.08445 32.8387 8.41448 32.5711 8.69043C32.3022 8.98588 31.978 9.21847 31.6193 9.37327C31.2606 9.52808 30.8753 9.60168 30.4883 9.58936H26.9567V3.52597H30.6165ZM40.4109 6.48464C38.4127 6.48464 36.903 7.26103 35.8818 8.81381L37.7367 10.0502C38.4206 8.99931 39.3508 8.47388 40.5272 8.47388C41.2775 8.46286 42.0038 8.75345 42.5602 9.2872C42.8356 9.52652 43.0567 9.82842 43.2071 10.1706C43.3576 10.5127 43.4336 10.8864 43.4294 11.2638V11.7725C42.622 11.2857 41.5928 11.0431 40.342 11.0448C38.8758 11.0448 37.705 11.4091 36.8294 12.1376C35.9507 12.8628 35.5121 13.8406 35.5137 15.0711C35.5048 15.624 35.6121 16.172 35.8278 16.6755C36.0434 17.1789 36.362 17.6252 36.7605 17.9819C37.5918 18.7592 38.6249 19.1478 39.8599 19.1478C41.3086 19.1478 42.4684 18.4679 43.3392 17.1082H43.4294V18.7575H45.4434V11.4326C45.4434 9.89656 44.9938 8.68791 44.0944 7.8066C43.192 6.9253 41.9641 6.48464 40.4109 6.48464ZM45.7854 6.87242L50.4071 18.0071L47.7994 24H49.9725L57 6.8699H54.7082L51.4592 15.4085H51.4117L48.0725 6.87242H45.7854ZM40.6887 12.8351C41.862 12.8351 42.7771 13.1121 43.4342 13.666C43.4342 14.6027 43.0859 15.4194 42.3892 16.1161C42.0792 16.4473 41.7103 16.7101 41.3039 16.889C40.8974 17.068 40.4615 17.1596 40.0214 17.1585C39.4278 17.1707 38.8487 16.9643 38.3826 16.5744C38.166 16.4077 37.99 16.1888 37.869 15.9357C37.748 15.6826 37.6855 15.4027 37.6868 15.1189C37.6868 14.476 37.9742 13.9329 38.5489 13.4898C39.1189 13.0533 39.8337 12.8351 40.6887 12.8351Z" fill="#C2C2C2"/>
</svg>
