<svg width="51" height="31" viewBox="0 0 51 31" fill="none" xmlns="http://www.w3.org/2000/svg">
<g id="Group 48">
<path id="Vector" d="M18.2884 3.31323H31.8433V27.6691H18.2884V3.31323Z" fill="#929292"/>
<path id="Vector_2" d="M19.1491 15.4914C19.1491 10.5428 21.4728 6.1535 25.0443 3.31335C22.4195 1.24787 19.1062 0 15.4916 0C6.92798 0 0 6.92798 0 15.4914C0 24.0548 6.92798 30.9827 15.4914 30.9827C19.106 30.9827 22.4193 29.7349 25.0443 27.6692C21.4728 24.8722 19.1491 20.4399 19.1491 15.4914Z" fill="#C2C2C2"/>
<path id="Vector_3" d="M50.1317 15.4914C50.1317 24.0546 43.2037 30.9827 34.6403 30.9827C31.0257 30.9827 27.7123 29.7349 25.0874 27.6692C28.702 24.8292 30.9827 20.4399 30.9827 15.4914C30.9827 10.5428 28.6589 6.1535 25.0874 3.31335C27.7121 1.24787 31.0257 0 34.6403 0C43.2037 0 50.1317 6.97111 50.1317 15.4914Z" fill="#757575"/>
</g>
</svg>
