<svg width="57" height="18" viewBox="0 0 57 18" fill="none" xmlns="http://www.w3.org/2000/svg">
<path id="Vector" d="M52.7773 17.7402L52.2429 15.1307H46.2721L45.3221 17.7216L40.5365 17.7309C43.6129 10.5108 45.8961 5.16263 47.386 1.68634C47.7755 0.777062 48.4666 0.313145 49.4855 0.320104C50.2645 0.32629 51.5359 0.327062 53.2997 0.322423L57 17.7332L52.7773 17.7402ZM47.614 11.5562H51.4639L50.027 5.01495L47.614 11.5562ZM16.7722 0.317784L21.584 0.322423L14.1455 17.7425L9.27437 17.7379C8.04947 13.1366 6.8398 8.53138 5.64538 3.92242C5.40788 3.00387 4.93762 2.36134 4.03275 2.05747C3.22367 1.78686 1.87942 1.36856 0 0.802577V0.322423H7.68787C9.01787 0.322423 9.7945 0.951032 10.0439 2.24072C10.2956 3.53351 10.929 6.82268 11.9439 12.1082L16.7722 0.317784ZM28.196 0.322423L24.3936 17.7402L19.8123 17.7332L23.6075 0.317784L28.196 0.322423ZM37.4823 0C38.8526 0 40.5793 0.417525 41.572 0.802577L40.7692 4.41186C39.8715 4.05928 38.3942 3.58376 37.1521 3.6C35.3471 3.63015 34.2309 4.3701 34.2309 5.0799C34.2309 6.23505 36.1689 6.81727 38.1639 8.07912C40.4391 9.51727 40.7407 10.8093 40.7122 12.2149C40.6814 15.126 38.1639 18 32.8534 18C30.4309 17.9652 29.5569 17.768 27.5809 17.0814L28.4169 13.3144C30.4285 14.1356 31.2811 14.3977 33.0006 14.3977C34.5753 14.3977 35.9266 13.776 35.9385 12.6928C35.948 11.9227 35.4635 11.5399 33.6965 10.5889C31.9295 9.63789 29.45 8.31804 29.4832 5.66675C29.5236 2.27551 32.813 0 37.4823 0Z" fill="#C2C2C2"/>
</svg>
